<svg width="200" height="40" viewBox="0 0 200 40" fill="none" xmlns="http://www.w3.org/2000/svg">
  <path d="M15.8 27.2L10.6 17.2V27.2H6.2V11.2H11.4L16.4 21.2L21.4 11.2H26.6V27.2H22.2V17.2L17 27.2H15.8Z" fill="#044253"/>
  <path d="M34.0016 11.2V27.2H29.6016V11.2H34.0016Z" fill="#044253"/>
  <path d="M47.6031 27.6C46.0031 27.6 44.5364 27.2667 43.2031 26.6C41.8697 25.9333 40.8031 24.9667 40.0031 23.7C39.2031 22.4333 38.8031 20.9667 38.8031 19.3C38.8031 17.6333 39.2031 16.1667 40.0031 14.9C40.8031 13.6333 41.8697 12.6667 43.2031 12C44.5364 11.3333 46.0031 11 47.6031 11C49.2031 11 50.6697 11.3333 52.0031 12C53.3364 12.6667 54.4031 13.6333 55.2031 14.9C56.0031 16.1667 56.4031 17.6333 56.4031 19.3C56.4031 20.9667 56.0031 22.4333 55.2031 23.7C54.4031 24.9667 53.3364 25.9333 52.0031 26.6C50.6697 27.2667 49.2031 27.6 47.6031 27.6ZM47.6031 23.8C48.4031 23.8 49.1364 23.6 49.8031 23.2C50.4697 22.8 51.0031 22.2333 51.4031 21.5C51.8031 20.7667 52.0031 19.9 52.0031 18.9C52.0031 17.9 51.8031 17.0333 51.4031 16.3C51.0031 15.5667 50.4697 15 49.8031 14.6C49.1364 14.2 48.4031 14 47.6031 14C46.8031 14 46.0697 14.2 45.4031 14.6C44.7364 15 44.2031 15.5667 43.8031 16.3C43.4031 17.0333 43.2031 17.9 43.2031 18.9C43.2031 19.9 43.4031 20.7667 43.8031 21.5C44.2031 22.2333 44.7364 22.8 45.4031 23.2C46.0697 23.6 46.8031 23.8 47.6031 23.8Z" fill="#044253"/>
  <path d="M66.0047 27.6C64.405 27.6 62.9383 27.2667 61.605 26.6C60.2716 25.9333 59.205 24.9667 58.405 23.7C57.605 22.4333 57.205 20.9667 57.205 19.3C57.205 17.6333 57.605 16.1667 58.405 14.9C59.205 13.6333 60.2716 12.6667 61.605 12C62.9383 11.3333 64.405 11 66.005 11C67.605 11 69.0716 11.3333 70.405 12C71.7383 12.6667 72.805 13.6333 73.605 14.9C74.405 16.1667 74.805 17.6333 74.805 19.3C74.805 20.9667 74.405 22.4333 73.605 23.7C72.805 24.9667 71.7383 25.9333 70.405 26.6C69.0716 27.2667 67.6047 27.6 66.0047 27.6ZM66.0047 23.8C66.805 23.8 67.5383 23.6 68.205 23.2C68.8716 22.8 69.405 22.2333 69.805 21.5C70.205 20.7667 70.405 19.9 70.405 18.9C70.405 17.9 70.205 17.0333 69.805 16.3C69.405 15.5667 68.8716 15 68.205 14.6C67.5383 14.2 66.805 14 66.0047 14C65.205 14 64.4716 14.2 63.805 14.6C63.1383 15 62.605 15.5667 62.205 16.3C61.805 17.0333 61.605 17.9 61.605 18.9C61.605 19.9 61.805 20.7667 62.205 21.5C62.605 22.2333 63.1383 22.8 63.805 23.2C64.4716 23.6 65.205 23.8 66.0047 23.8Z" fill="#044253"/>
  <path d="M77.607 27.2V11.2H82.007V24H90.207V27.2H77.607Z" fill="#044253"/>
  <path d="M94.0086 14.4V17.6H99.8086V20.6H94.0086V24H100.809V27.2H89.6086V11.2H100.809V14.4H94.0086Z" fill="#417ED3"/>
  <path d="M114.81 11.2V27.2H110.41V20.8H104.61V27.2H100.21V11.2H104.61V17.6H110.41V11.2H114.81Z" fill="#417ED3"/>
  <path d="M116.611 27.2V11.2H121.011V27.2H116.611Z" fill="#417ED3"/>
  <path d="M133.613 14.4H128.013V27.2H123.613V14.4H118.013V11.2H133.613V14.4Z" fill="#417ED3"/>
  <path d="M138.414 14.4V17.6H144.214V20.6H138.414V24H145.214V27.2H134.014V11.2H145.214V14.4H138.414Z" fill="#044253"/>
  <path d="M152.615 27.6C151.215 27.6 149.915 27.4 148.715 27C147.515 26.5667 146.582 26 145.915 25.3L147.515 22.3C148.115 22.9 148.882 23.3667 149.815 23.7C150.748 24.0333 151.682 24.2 152.615 24.2C153.548 24.2 154.215 24.0667 154.615 23.8C155.048 23.5333 155.265 23.1667 155.265 22.7C155.265 22.3667 155.148 22.1 154.915 21.9C154.682 21.6667 154.348 21.5 153.915 21.4C153.515 21.2667 152.915 21.1333 152.115 21C150.915 20.8 149.948 20.6 149.215 20.4C148.482 20.1667 147.848 19.7667 147.315 19.2C146.782 18.6333 146.515 17.8333 146.515 16.8C146.515 15.9 146.748 15.1 147.215 14.4C147.715 13.6667 148.415 13.1 149.315 12.7C150.248 12.2667 151.348 12.0667 152.615 12.0667C153.748 12.0667 154.848 12.2333 155.915 12.5667C156.982 12.9 157.882 13.4 158.615 14.0667L157.115 17.0667C156.448 16.5333 155.748 16.1333 155.015 15.8667C154.282 15.6 153.515 15.4667 152.715 15.4667C151.815 15.4667 151.148 15.6 150.715 15.8667C150.315 16.1333 150.115 16.4667 150.115 16.8667C150.115 17.2667 150.348 17.5667 150.815 17.7667C151.282 17.9667 152.048 18.1667 153.115 18.3667C154.315 18.6 155.248 18.8333 155.915 19.0667C156.582 19.3 157.182 19.7 157.715 20.2667C158.248 20.8333 158.515 21.6333 158.515 22.6667C158.515 23.5667 158.248 24.3667 157.715 25.0667C157.215 25.7667 156.482 26.3333 155.515 26.7333C154.548 27.3111 153.715 27.6 152.615 27.6Z" fill="#044253"/>
</svg>
